<svg xmlns="http://www.w3.org/2000/svg" width="256" height="256"><path fill-opacity=".016" d="M0 128.004v128.004l128.25-.254 128.25-.254.254-127.75L257.008 0H0v128.004m.485.496c0 70.4.119 99.053.265 63.672.146-35.38.146-92.98 0-128C.604 29.153.485 58.1.485 128.5" fill="#1976D2" fill-rule="evenodd"/><path fill-opacity=".195" d="M.242 112.258L.5 212.5H6c5.223 0 5.516.135 5.81 2.684.237 2.047 1.007 2.837 3.25 3.329 1.617.355 2.94 1.285 2.94 2.066 0 1.736 1.191 1.83 2.8.221.66-.66 1.2-.758 1.2-.218s1.201 1.081 2.669 1.203c3.212.266 3.395.421 3.594 3.051.126 1.682.423 1.841 1.609.863 1.134-.936 1.546-.925 1.874.051.231.687 1.171 1.214 2.087 1.171 1.04-.049 1.197-.269.417-.583-.687-.278-1.25-.957-1.25-1.51s1.462.232 3.25 1.744c1.788 1.513 3.126 3.161 2.975 3.664-.151.503.598.638 1.666.299 1.067-.339 2.23-.148 2.584.424.354.573 1.966 1.041 3.584 1.041 1.948 0 2.941.507 2.941 1.5 0 .825.45 1.5 1 1.5s1-.73 1-1.622c0-1.299.287-1.385 1.441-.427.792.657 1.194 1.837.893 2.622-.332.863.073 1.427 1.024 1.427.864 0 2.053.9 2.642 2 .862 1.611.76 2-.524 2-.877 0-1.386-.338-1.131-.75.255-.412-.731-.806-2.191-.873-1.46-.068-2.139.066-1.51.297.629.232.914 1.3.633 2.374-.504 1.927.814 1.952 101.046 1.952h101.556l.324-11.75c.179-6.463.452-58.775.608-116.25l.283-104.5-128.555.258-128.554.257.257 100.243M.475 85.5c0 40.7.124 57.204.275 36.676.151-20.528.151-53.828 0-74C.598 28.004.475 44.8.475 85.5m60.084-17.032c1.067.808 1.393 1.483.722 1.5-.67.018-.974.668-.676 1.445.319.83-.209 1.606-1.282 1.884-1.473.381-1.395.493.408.587 1.582.082 2.409-.595 2.844-2.327.734-2.923-.1-4.557-2.325-4.557-1.369 0-1.32.237.309 1.468m-5.892 3.199c-.956.955-.822 2.333.226 2.333.491 0 1.152-.675 1.469-1.5.585-1.524-.481-2.048-1.695-.833m-4.905 3.173c-1.507.912-2.966 2.249-3.243 2.972-.524 1.365 4.956-2.153 6.01-3.859.736-1.192.59-1.145-2.767.887M40 74.383c0 .211 1.111.596 2.47.856 1.358.26 2.232.087 1.941-.383-.512-.829-4.411-1.246-4.411-.473m65 54.026c0 .19.675.906 1.5 1.591.865.718 1.5.815 1.5.229 0-.558-.675-1.274-1.5-1.591-.825-.316-1.5-.419-1.5-.229m5 5.388c0 .783 6.124 3.413 6.671 2.865.167-.167-1.265-1.052-3.184-1.967-1.918-.914-3.487-1.319-3.487-.898m17 7.662c0 .275 1.688 1.368 3.75 2.428 2.063 1.06 6.521 4.444 9.907 7.52 5.731 5.205 8.285 6.927 6.862 4.624-.329-.533 1.332-.09 3.691.984 2.36 1.074 4.193 2.364 4.074 2.866-.119.503.556.713 1.5.469.944-.245 2.616.284 3.716 1.176 1.1.892 1.368 1.294.595.894-.923-.479-1.16-.334-.69.425.392.635 1.306 1.155 2.032 1.155.725 0 1.891.69 2.591 1.533.7.844 1.752 1.374 2.339 1.178.587-.196 2.608.689 4.49 1.967 1.882 1.277 3.974 2.322 4.648 2.322.674 0 2.317.859 3.651 1.908 1.334 1.05 3.308 2.062 4.385 2.25 1.077.188 2.184.567 2.459.842 1.819 1.819 6.873 4.794 7.344 4.323 1.188-1.188-16.936-11.693-18.503-10.725-.49.303-.767.054-.616-.552.277-1.11-.843-1.789-18.225-11.057-5.225-2.786-12.425-6.845-16-9.02-8.566-5.213-14-8.128-14-7.51M.436 186.5c0 14.3.141 20.011.312 12.691.171-7.32.17-19.02-.001-26-.172-6.98-.312-.991-.311 13.309m110.721-24c-.003.55.602 2.575 1.343 4.5.741 1.925 1.362 2.825 1.379 2 .017-.825-.587-2.85-1.343-4.5-.755-1.65-1.376-2.55-1.379-2m10.291 7.076c.607 3.235.308 3.918-3.138 7.169-2.096 1.976-2.832 3.07-1.638 2.43 4.02-2.151 6.47-6.24 5.758-9.609-.616-2.914-.488-2.843 2.589 1.434 6.004 8.346 6.483 7.833.702-.75-3.546-5.265-5.182-5.523-4.273-.674m-96.944.418c-.308.498.353 1.394 1.468 1.991 1.597.855 2.028.782 2.028-.343 0-1.688-2.688-2.956-3.496-1.648m78.579.381c.23.206 3.117.634 6.417.952 3.887.374 5.12.277 3.5-.275-2.466-.841-10.726-1.405-9.917-.677m-70.987 4.009c-.622.749-.872 2.037-.555 2.862.449 1.169-.016 1.386-2.113.985-1.958-.374-2.567-.149-2.241.829.663 1.991 6.697 5.123 11.737 6.093 2.433.468 5.24 1.59 6.237 2.493.998.903 3.507 1.739 5.577 1.858 2.069.119 3.762.316 3.762.438 0 .123 1.342.44 2.981.705 1.64.266 3.215.837 3.5 1.268 1.296 1.962 5.303 3.035 11.034 2.954 5.352-.075 6.54.25 8.453 2.313 1.225 1.321 2.457 3.057 2.739 3.86.282.802.946-1.017 1.475-4.042.53-3.025.605-6.234.169-7.131-.453-.931-3.706-2.408-7.573-3.439-3.728-.994-7.003-2.103-7.278-2.465-.275-.361-2.721-.954-5.435-1.317-2.714-.363-5.961-1.333-7.215-2.154-1.254-.822-3.351-1.494-4.66-1.494-1.309 0-5.037-.913-8.285-2.029-3.248-1.117-6.694-2.216-7.659-2.444-.964-.227-2.151-.659-2.636-.959-.486-.3-1.392.067-2.014.816M177 173.393c0 .216.698.661 1.552.989.89.341 1.291.173.941-.393-.587-.951-2.493-1.406-2.493-.596m22 8.957c0 .231 1.18 1.193 2.623 2.139 1.443.945 2.318 1.224 1.944.62-.713-1.154-4.567-3.483-4.567-2.759m-109.433 10.4c.238 1.513.658 4.103.933 5.756.596 3.588 4.892 5.936 8.984 4.909 1.577-.396 3.689-.125 5.158.661 1.946 1.042 2.653 1.065 3.245.107.416-.674 1.849-1.056 3.185-.849 2.639.409 7.928-1.09 7.928-2.247 0-1.24-6.688-3.971-13.715-5.601-3.718-.862-7.817-2.26-9.109-3.107-1.292-.846-2.595-1.294-2.894-.994-.3.3-1.356.111-2.347-.42-1.568-.839-1.746-.607-1.368 1.785m-41.817 9.549c-3.702 1.463-3.472 3.395.5 4.204 5.275 1.073 9.75 2.831 9.75 3.829 0 .511 1.585.672 3.522.358 2.09-.339 3.286-.189 2.941.369-.319.518-.067.941.561.941 2.168 0 .313-2.501-2.102-2.835-5.55-.767-3.605-1.925 2.479-1.475 3.63.268 6.599.086 6.599-.404 0-1.406-9.715-4.532-14.497-4.665-2.385-.067-4.674-.459-5.087-.871-.886-.887-1.093-.863-4.666.549m70.875 1.499c-.787 1.272 1.04 3.527 2.252 2.778.692-.427.879-.104.505.872-.811 2.111.275 1.95 2.817-.419 1.847-1.72 1.911-2.05.506-2.589-.885-.339-2.081-.326-2.657.03-.576.357-1.048.171-1.048-.411 0-1.239-1.658-1.421-2.375-.261m-78.812 1.885c.721.289 1.584.253 1.916-.079.332-.332-.258-.568-1.312-.525-1.165.048-1.402.285-.604.604m33.187 2.4c0 1.54 4.663 3.983 6.359 3.333 2.687-1.031 1.888-2.11-2.359-3.188-2.2-.558-4-.624-4-.145M82.158 211c0 1.375.227 1.938.504 1.25.278-.687.278-1.812 0-2.5-.277-.687-.504-.125-.504 1.25m4 1c0 1.375.227 1.938.504 1.25.278-.687.278-1.812 0-2.5-.277-.687-.504-.125-.504 1.25M8 216c0 .55.45 1 1 1s1-.45 1-1-.45-1-1-1-1 .45-1 1m2.892 4.058c1.315 1.096 2.617 1.767 2.892 1.491.858-.857-1.943-3.551-3.656-3.516-1.259.026-1.086.485.764 2.025M4 222c-1.828 1.181-.249 1.181 2.5 0 1.319-.567 1.489-.878.5-.914-.825-.031-2.175.381-3 .914m40 21c0 .55.927 1 2.059 1 1.132 0 1.781-.45 1.441-1-.34-.55-1.266-1-2.059-1-.793 0-1.441.45-1.441 1" fill="#1976D2" fill-rule="evenodd"/><path fill-opacity=".317" d="M0 61.008V110l2.75.111c1.513.061 3.678.039 4.812-.047 1.133-.087 3.302.314 4.819.891 2.134.811 3.082.725 4.189-.382.786-.787 1.43-1.86 1.43-2.385 0-.525.9-1.19 2-1.478 1.1-.287 2-.973 2-1.523 0-.55-.9-.764-2-.477-1.1.288-2 .08-2-.462 0-.541 1.913-1.245 4.25-1.563 3.255-.444 5.421-.024 9.25 1.792 4.537 2.151 5.063 2.216 5.68.697.511-1.259.697-1.049.75.846.038 1.386.919 5.661 1.957 9.5 1.038 3.839 2.18 8.648 2.537 10.687.609 3.47 4.39 7.793 6.817 7.793.534 0 2.655-1.334 4.713-2.964l3.742-2.963 2.488 2.713c1.369 1.493 3.704 4.847 5.189 7.454 2.852 5.008 6.499 6.941 9.071 4.806 2.2-1.825 3.555-10.114 3.571-21.845.009-6.298.367-10.147.869-9.355.804 1.269 8.116 2.647 8.116 1.53 0-.286-1.165-2.625-2.59-5.198l-2.59-4.678 2.433 2.82c3.067 3.554 12.746 22.103 12.751 24.436.002.959.984 3.319 2.182 5.244 6.433 10.337 17.087 35.06 15.705 36.442-.236.236-5.821-.174-12.41-.911-17.479-1.957-16.92-2.128-17.279 5.302-.164 3.395.168 6.96.736 7.92.768 1.297.974-.057.798-5.253l-.236-7 2.937-.334c1.615-.184 7.212.435 12.437 1.376 8.478 1.526 9.293 1.855 7.564 3.05-1.066.737-2.388 1.697-2.938 2.134-.55.437-5.304 2.486-10.564 4.552l-9.564 3.757-1.283 12.233c-1.546 14.752-1.723 15.482-3.886 16.052-1.478.389-1.457.463.155.564 1.485.093 1.728.636 1.21 2.701-.357 1.422-.852 4.595-1.101 7.052-.248 2.456-.905 5.313-1.459 6.349-1.234 2.305-1.268 3.014-.145 3.014 1.535 0 3.971-10.181 5.623-23.5.886-7.15 2.1-13.982 2.696-15.183.596-1.2.841-2.816.543-3.59-.297-.775-.244-1.87.118-2.433 1.057-1.649 8.646-5.187 18.838-8.783 12.194-4.302 13.58-5.54 13.15-11.74-.182-2.625-.072-4.772.245-4.772.886.001 4.253 4.068 7.036 8.501 9.516 15.155 12.286 18.143 15.79 17.031.978-.31 2.376-1.682 3.107-3.048.731-1.365 1.678-2.483 2.105-2.483.426 0 4.111 1.52 8.187 3.378 6.694 3.05 7.717 3.91 10.556 8.872 1.729 3.021 3.143 5.755 3.143 6.074 0 .319-2.137-.084-4.75-.896-2.612-.812-7.38-2.111-10.595-2.886-5.641-1.36-5.787-1.345-4.191.418.909 1.004 3.314 2.307 5.344 2.895 2.031.588 6.842 2.143 10.692 3.455 6.863 2.34 7.059 2.505 10.038 8.398 1.671 3.306 3.808 6.781 4.75 7.723 1.996 1.996 2.179 3.247.555 3.788-1.093.364-12.411-.742-14.411-1.408-.513-.171-1.006.089-1.097.577-.346 1.872-2.502 2.155-9.277 1.218-7.263-1.004-12.058.162-12.058 2.932 0 1.407-5.349 2.435-12.75 2.451-2.887.006-5.25.433-5.25.948 0 .516-1.687.703-3.75.417-2.83-.392-3.382-.258-2.25.548 1.27.904 1.194 1.082-.5 1.165-4.334.211-7.994 1.114-8.619 2.126-.362.585-1.096.792-1.632.461-1.36-.841-13.249 1.36-13.249 2.453 0 .491.845.893 1.878.893 1.032 0 2.437.675 3.122 1.5.984 1.185 3.84 1.5 13.622 1.5 6.808 0 12.378-.402 12.378-.893 0-1.756 3.319-2.128 5.045-.566.966.874 1.993 1.206 2.283.738.767-1.242 12.412-1.509 13.157-.302.947 1.53 2.515 1.233 2.515-.477 0-2.045 1.634-1.897 2.447.222.533 1.391.823 1.459 1.506.354.465-.752 1.554-1.096 2.42-.763.918.352 2.026-.108 2.659-1.105.745-1.175 1.243-1.333 1.593-.508.325.766 1.297.925 2.692.44 3.052-1.063 12.621-.621 16.017.739 1.559.624 3.266.868 3.794.542.528-.326 1.586-.073 2.352.562 1.055.876 1.94.863 3.658-.057 1.678-.898 2.365-.916 2.648-.069.468 1.406 6.86 1.524 7.714.143.746-1.206 8.169-1.345 8.898-.166.283.459 3.347.912 6.809 1.006 5.644.153 6.103.023 4.446-1.266-1.016-.79-2.479-1.194-3.25-.898-.914.35-1.403-.155-1.403-1.452 0-1.187.909-2.278 2.25-2.702 2.039-.644 10.582-1.412 16.621-1.493 2.095-.028 2.217-.236 1.049-1.78-1.126-1.488-1.114-1.562.078-.499 1.747 1.557 5.089 1.643 4.752.122-.395-1.779 4.436-2.021 9.561-.479l4.689 1.411v-2.702c0-1.486-.54-3.242-1.2-3.902-.933-.933-.933-1.2 0-1.2.77 0 1.2-1.754 1.2-4.893 0-5.043-.877-6.107-5.032-6.107-1.028 0-2.231-.648-2.675-1.44-.443-.792-2.828-1.93-5.299-2.528a601.222 601.222 0 01-5.994-1.477c-.825-.213-3.3-.838-5.5-1.388-2.2-.55-5.463-1.456-7.25-2.014-2.127-.663-3.25-.671-3.25-.024 0 .544-.445.714-.989.378-.566-.35-.734.051-.393.941.714 1.858 3.98 2.064 4.789.302.316-.687.323-.238.016 1-.441 1.779-.132 2.25 1.478 2.25 1.218 0 1.844.503 1.557 1.25-.293.765.442 1.303 1.893 1.386 3.283.187 8.094 4.426 6.406 5.645-1.314.949-.229.703 3.493-.792 1.21-.486 1.75-.231 1.75.825 0 .864 1.23 1.797 2.833 2.149 1.559.343 2.834 1.268 2.834 2.057 0 1.034-.721 1.263-2.584.819-1.421-.338-3.051-.98-3.624-1.426-.572-.446-2.579-1.082-4.459-1.413-1.88-.331-4.068-1.142-4.863-1.801-.794-.659-1.605-1.07-1.802-.912-.197.157-3.325-.63-6.952-1.75-3.626-1.12-7.784-2.044-9.238-2.052-3.472-.02-5.611-1.422-4.62-3.025.603-.977-.144-1.117-3.281-.615-4.423.707-6.205-.408-16.131-10.095-2.395-2.338-4.784-4.25-5.31-4.25-1.415 0 3.232 5.3 6.619 7.55 3.579 2.376 4.433 4.45 1.834 4.45-3.105 0-15.043-4.497-17.256-6.5-1.739-1.574-8.444-11.525-7.741-11.487.133.007 3.166.945 6.741 2.085 11.704 3.732 17.019 4.902 22.299 4.908 2.86.004 6.54.705 8.176 1.558 1.637.853 3.799 1.336 4.804 1.073 1.005-.263 4.946.611 8.756 1.943 8.275 2.891 12.084 3.051 14.302.6 1.554-1.717 1.434-1.937-2.095-3.875-2.058-1.13-4.367-1.827-5.131-1.55-.79.287-1.113.058-.749-.532.382-.618-.078-.848-1.14-.571-2.246.587-11.222-3.191-11.222-4.723 0-.629-.563-.936-1.25-.683-.687.254-2.6-.353-4.25-1.348a122.485 122.485 0 00-6.25-3.467c-1.787-.913-3.25-2.133-3.25-2.712 0-.579-.3-.752-.668-.385-.367.367-3.067-.686-6-2.342-2.932-1.655-5.339-2.668-5.347-2.251-.009.418-.346.258-.75-.354s-3.66-2.616-7.235-4.453c-3.575-1.836-8.637-4.826-11.25-6.644-2.613-1.817-4.75-3.066-4.75-2.774 0 .291-1.22-.268-2.711-1.243-1.922-1.256-2.455-1.356-1.829-.342 1.129 1.832-5.617-3.136-11.46-8.439-2.475-2.247-6.648-5.122-9.274-6.389-2.625-1.267-6.067-3.597-7.647-5.178-2.719-2.719-9.595-6.022-16.855-8.097-1.801-.515-3.079-1.254-2.838-1.643.624-1.01-1.429-3.42-4.69-5.507-1.542-.987-3.081-2.556-3.421-3.486-.34-.931-1.89-2.933-3.446-4.451-1.556-1.517-2.829-3.284-2.829-3.927C94 114.495 85.943 99.42 82.876 96c-1.727-1.925-2.786-2.825-2.354-2 .432.825-.127.6-1.242-.5-1.246-1.229-1.694-2.421-1.162-3.092.546-.69-.329-2.156-2.376-3.981-1.783-1.588-3.279-2.672-3.325-2.407-.046.264-1.319-.87-2.831-2.52-1.511-1.65-2.417-2.368-2.012-1.595.484.924.341 1.16-.419.69C65.211 79.394 65.868 78 68.378 78c2.607 0 5.039 2.204 3.863 3.502-.407.45-.231.527.392.172 1.666-.952 11.979 12.36 17.672 22.812 6.997 12.845 8.215 14.326 12.486 15.181 2.04.409 3.934.8 4.209.869.275.07 1.85.444 3.5.832 1.65.387 5.025 1.31 7.5 2.051 2.475.741 6.525 1.9 9 2.575 2.475.676 7.2 2.101 10.5 3.166 5.85 1.888 20.177 4.991 31.749 6.876 3.161.514 9.076 1.807 13.143 2.873 4.067 1.065 9.58 2.237 12.251 2.605 4.982.686 19.067 5.065 20.857 6.485.55.436 2.575 1.257 4.5 1.825 6.661 1.963 32.121 10.963 32.726 11.568.334.335 1.207.608 1.941.608 1.037 0 1.333-2.667 1.333-12 0-10.734-.185-12.008-1.75-12.074-2.868-.122-6.588-.882-9.25-1.89-4.336-1.642-23.327-6.87-27.5-7.57-5.818-.977-14.508-3.401-18.248-5.09-3.81-1.722-8.252-5.619-8.252-7.241 0-.624-.354-1.135-.787-1.135-.433 0-.89-1.35-1.016-3-.23-3.021 1.42-4.161 2.384-1.648.322.837 1.475 1.169 3.028.872 1.379-.264 5.969.078 10.2.761 10.699 1.724 10.967 1.762 17.691 2.499 6.878.754 16.28 2.94 21.77 5.06 2.074.801 5.494 1.456 7.6 1.456h3.831l.649-9.154c.358-5.034.65-29.672.65-54.75V11.5l-128.5.258L0 12.015v48.993M.463 61c0 27.225.129 38.362.286 24.75.157-13.613.157-35.888 0-49.5C.592 22.637.463 33.775.463 61m56.542 5.997c-.952.588-.922.902.132 1.382 1.088.496 1.104.741.076 1.217-.708.327-2.508 1.601-4 2.829-1.492 1.229-3.501 2.522-4.463 2.873-.962.352-1.75 1.103-1.75 1.671 0 .567-.45 1.031-1 1.031s-1-.87-1-1.933c0-1.063-.896-2.217-1.991-2.564-2.179-.692-4.009.046-4.009 1.615 0 .55.446.724.992.387.545-.337 2.167.563 3.605 2.001 2.541 2.542 2.67 2.564 4.68.804 1.472-1.289 1.852-1.378 1.321-.31-.411.825.225.263 1.411-1.25 2.468-3.146 7.25-3.731 10.018-1.226 1.986 1.797 4.979.964 4.958-1.381-.042-4.732-5.657-9.2-8.98-7.146M39.2 92.2c-1.82 1.82-1.435 3.24.454 1.672.909-.754 1.697-1.291 1.75-1.192.053.099 1.424.684 3.048 1.302 2.934 1.115 2.94 1.109 1.095-.93-2.089-2.308-4.559-2.64-6.347-.852m27.106 6.268c-1.543 1.358-2.292 2.483-1.663 2.5.629.018 1.402-.643 1.719-1.468.316-.825 1.489-1.5 2.607-1.5C70.086 98 71 97.55 71 97c0-1.674-1.742-1.128-4.694 1.468M41.5 98c.34.55.816 1 1.059 1s.441-.45.441-1-.477-1-1.059-1-.781.45-.441 1m19.5 7c0 .55.45 1 1 1s1-.45 1-1-.45-1-1-1-1 .45-1 1m97 .622c0 1.324.275 1.395 1.488.388 1.205-1 1.606-.929 2.105.372.339.883 1.049 1.339 1.578 1.012.529-.327 1.593.238 2.364 1.256.844 1.115 1.414 1.346 1.433.581.022-.851.855-1.062 2.532-.642 2.035.511 2.5.26 2.5-1.35 0-1.508-.89-2.124-3.75-2.597-6.79-1.122-10.25-.791-10.25.98m19 1.409c0 .533.675.969 1.5.969s1.5-.177 1.5-.393c0-.216-.675-.652-1.5-.969-.825-.316-1.5-.139-1.5.393m-118 1.028c0 .582-.495.753-1.1.379-.773-.477-.762-.049.035 1.441 1.295 2.42 2.572 2.885 1.703.621-.316-.825-.139-1.5.393-1.5.533 0 .969-.45.969-1s-.45-1-1-1-1 .477-1 1.059m2.69 4.377c-1.071.812-1.398 1.627-.8 1.996.555.343 1.498-.289 2.095-1.404 1.268-2.37 1.132-2.432-1.295-.592m4.331 3.029l-2.206 3.571 3.342 5.154c1.839 2.835 3.871 6.539 4.517 8.232.646 1.693 1.205 2.403 1.244 1.578.038-.825-.575-2.735-1.362-4.245-.788-1.51-1.404-3.535-1.369-4.5.081-2.242-1.228-12.629-1.644-13.045-.173-.174-1.308 1.292-2.522 3.255M154 173.393c0 .216.698.661 1.552.989.89.341 1.291.173.941-.393-.587-.951-2.493-1.406-2.493-.596m-12 7.426c0 1.208 1.897 2.617 2.591 1.924.251-.252-.229-1.027-1.067-1.723-.95-.789-1.524-.865-1.524-.201m69.768 22.349c.582.582 1.647.86 2.369.62.749-.25.295-.703-1.057-1.057-1.663-.435-2.054-.305-1.312.437m-123.166.668c-.285.459-.125 2.147.355 3.75.866 2.895.872 2.89.957-.836.085-3.697-.3-4.552-1.312-2.914m126.83 1.274c-.962 1.557.212 2.189 2.102 1.131 1.505-.842 1.516-1.008.107-1.548-.867-.333-1.861-.145-2.209.417M179 210.768c0 1.994 5.22 8.126 7.159 8.411 1.202.176 2.384.927 2.628 1.668.355 1.074.016 1.118-1.671.215-1.745-.934-2.116-.852-2.116.469 0 3.966 1.935 5.487 6.789 5.336 5.815-.181 6.662-.619 5.017-2.6-1.116-1.345-.998-1.463.868-.871 1.187.377 2.447.217 2.801-.355.354-.573 1.093-1.041 1.643-1.041s.749.406.442.903c-.307.496.792 1.373 2.441 1.948 2.244.782 3.003.743 3.014-.153.01-.752.289-.826.75-.198.404.55 1.86 1.069 3.235 1.153 1.375.085 4.637.362 7.25.616 5.227.508 6.309-.749 2-2.323a143.34 143.34 0 01-4.25-1.626c-.825-.341-2.301-.777-3.28-.968-.978-.192-4.302-1.413-7.387-2.713-4.618-1.948-6.311-2.207-9.602-1.467-4.23.95-6.321.467-2.806-.648 1.141-.362 2.071-.966 2.067-1.341-.013-1.114-5.029-3.106-6.449-2.561-.72.276-2.992-.201-5.048-1.06-4.164-1.74-5.495-1.932-5.495-.794m70.269 15.925c.973.254 2.323.237 3-.037.677-.274-.119-.481-1.769-.461-1.65.02-2.204.244-1.231.498M71 236c-1.282.828-1.246.972.25.985.963.008 1.75-.435 1.75-.985 0-1.22-.113-1.22-2 0m5.5 0c.34.55.816 1 1.059 1s.441-.45.441-1-.477-1-1.059-1-.781.45-.441 1m17.5 3c0 .55.477 1 1.059 1s.781-.45.441-1-.816-1-1.059-1-.441.45-.441 1" fill="#1976D2" fill-rule="evenodd"/><path fill-opacity=".674" d="M0 34.818v22.804l4.75 1.171c2.612.644 8.35 1.627 12.75 2.185 8.561 1.085 10.155 1.381 12.5 2.321C36.089 65.74 47.575 69 50.087 69c7.412 0 8.434-3.51 4.941-16.962-1.066-4.104-1.766-7.634-1.556-7.844.423-.422 1.785 4.209 3.744 12.726L58.5 62.5l.626-6c.614-5.888.623-5.857.5 1.62-.12 7.275-.01 7.67 2.445 8.754 1.414.624 3.331 2.595 4.26 4.38 1.163 2.236 1.497 2.507 1.072.871-.409-1.575-.252-2.15.466-1.706 2.367 1.463 8.029 1.451 16.019-.033 6.962-1.294 8.531-1.332 9.234-.222.633.998.851 1.02.863.086.008-.687.717-1.25 1.574-1.25.857 0 1.349.34 1.093.755-.257.415 4.441.752 10.44.75 5.998-.003 10.907.22 10.907.495.001.275 2.333.64 5.182.811 2.849.172 6.017.76 7.041 1.308 1.023.547 4.433 1.101 7.577 1.23 3.145.129 6.231.552 6.859.94.628.388 2.199.723 3.492.745 6.691.114 15.41-.183 24.663-.842 5.672-.403 10.45-.595 10.618-.427.169.168 6.395.422 13.836.564 7.442.142 14.139.707 14.882 1.256.743.549 5.401 1.1 10.351 1.225 4.95.124 14.28.751 20.732 1.392 6.453.642 11.97.929 12.26.639.29-.29.819-15.785 1.175-34.434l.647-33.907-128.657.258L0 12.015v22.803M.43 35c0 12.925.143 18.212.317 11.75.174-6.463.174-17.038 0-23.5C.573 16.787.43 22.075.43 35m54.361 39.681c-.94.248-2.636 1.951-3.77 3.785-2.112 3.417-4.908 5.214-5.941 3.818-.319-.431-1.48-.863-2.58-.96-1.866-.164-1.883-.09-.25 1.11.962.708 1.75 1.744 1.75 2.303 0 .968 7.622.711 10.972-.37 1.296-.418 1.296-.586 0-1.405-1.031-.653-.068-.936 3.219-.947 5.671-.018 6.704-1.13 2.698-2.904-2.245-.994-2.708-1.625-1.902-2.595.781-.942.637-1.446-.543-1.899-.884-.339-1.683-.565-1.776-.501-.092.064-.937.318-1.877.565M40.697 86.346c-.665 1.735.952 4.355 1.999 3.238.442-.472.191-1.076-.559-1.342-1.042-.37-1.076-.662-.143-1.238.77-.476.85-.982.218-1.373-.552-.341-1.233-.019-1.515.715m35.007 10.323c-.716 1.159.953 4.007 1.833 3.127.356-.355.217-1.413-.307-2.349-.524-.937-1.211-1.287-1.526-.778m-38.14 5.624c.376.986.935 1.541 1.243 1.233.308-.307.001-1.114-.683-1.793-.988-.98-1.102-.865-.56.56m38.515 2.29c.048 1.165.285 1.402.604.605.289-.722.253-1.585-.079-1.917-.332-.332-.568.258-.525 1.312m-29.858 11.581c.214.641 1.489 1.815 2.834 2.61 2.232 1.319 2.284 1.311.595-.098-1.018-.849-1.554-2.023-1.191-2.609.365-.59-.075-1.067-.983-1.067-.904 0-1.468.524-1.255 1.164m.39 6.407c-.342.891.326 1.171 2.199.923a145.77 145.77 0 013.44-.425.84.84 0 00.748-.819c-.004-1.309-5.875-1.014-6.387.321M96 124.901c0 1.089.481 2.278 1.068 2.641.588.363.827 1.29.532 2.059-.296.77-.101 1.399.431 1.399.533 0 .969.88.969 1.956 0 1.075 1.125 3.613 2.5 5.639 1.375 2.026 2.5 4.227 2.5 4.89 0 .663.916 2.034 2.035 3.047 1.12 1.013 1.796 2.467 1.503 3.231-.294.764.542 3.267 1.857 5.563s3.402 7.099 4.638 10.674c1.236 3.575 2.7 6.792 3.253 7.149.553.357.695 1.457.317 2.444-.638 1.661-.533 1.654 1.401-.097 1.829-1.655 2.006-2.585 1.414-7.444-.575-4.724-1.333-6.259-5.079-10.293-4.722-5.085-7.647-10.894-8.643-17.165-.357-2.242-1.777-5.113-3.336-6.74-3.136-3.273-2.768-4.34 1.001-2.907 3.452 1.313 3.385.501-.111-1.356-1.513-.803-3.987-2.633-5.5-4.066-2.531-2.399-2.75-2.448-2.75-.624M45.5 130c-.34.55.11 1 1 1s1.34-.45 1-1c-.34-.55-.79-1-1-1-.21 0-.66.45-1 1m2.25 2.662c.688.278 1.813.278 2.5 0 .688-.277.125-.504-1.25-.504s-1.937.227-1.25.504m60.671 8.918c1.136 6.29 4.38 12.035 9.643 17.08 2.699 2.586 4.712 4.897 4.474 5.135-.238.238 1.264 2.744 3.337 5.569 2.073 2.825 4.998 7.386 6.499 10.136 3.682 6.746 5.777 9.125 8.682 9.862 1.344.341 1.904.369 1.244.062-.861-.4-.924-1.283-.224-3.123.536-1.411.674-3.515.305-4.675-.597-1.882-.488-1.96 1.006-.72 1.453 1.206 1.866 1.139 3.112-.508.791-1.044 1.45-2.123 1.466-2.398.016-.275-3.129-1.795-6.988-3.378-3.859-1.582-7.245-3.246-7.523-3.697-.279-.451 2.913.608 7.094 2.353 7.439 3.105 7.666 3.136 10.608 1.447 3.458-1.984 6.844-2.261 6.844-.558 0 .641.236.931.524.643 1.151-1.152-.745-3.565-2.451-3.119-1.211.317-1.975-.208-2.341-1.609-.889-3.398.911-3.385 7.518.055 11.039 5.748 24.977 15.105 23.688 15.902-.799.493-.404.985 1.18 1.468 5.297 1.613 17.992 6.717 17.623 7.085-.217.217-4.103-.959-8.636-2.613-4.533-1.654-13.234-4.393-19.335-6.087-6.102-1.694-11.749-3.331-12.55-3.638-2.059-.79 2.69 7.542 5.28 9.262 2.757 1.831 19.708 6.189 27 6.941 3.3.341 7.722 1.361 9.826 2.267 2.994 1.29 3.994 1.377 4.598.4.6-.972 2.005-.815 6.333.706 3.848 1.353 6.59 1.733 8.902 1.234l3.341-.72-3.25-.752c-1.787-.413-3.25-1.113-3.25-1.556 0-.443-2.305-1.56-5.121-2.481-6.941-2.27-21.172-9.221-33.879-16.547-5.775-3.329-15.802-8.728-22.282-11.998l-11.781-5.945-.6 3.002c-.68 3.397-1.701 3.066-1.897-.615-.072-1.349.362-2.459.964-2.467.603-.009.427-.438-.39-.955-1.695-1.072-2.91.547-4.082 5.436-.676 2.821-.745 2.719-.982-1.466-.14-2.475-.303-5.061-.363-5.747-.059-.686-3.253-3.089-7.097-5.34-10.729-6.283-10.49-6.181-10.49-4.48 0 .846.586 1.279 1.34.99.737-.283 1.917.181 2.622 1.031.87 1.048.921 1.546.16 1.546-.617 0-1.122-.48-1.122-1.067 0-.59-.842-.801-1.882-.471-1.913.608-3.668-1.762-2.593-3.502.292-.473-.382-1.348-1.497-1.945-1.864-.998-2.038-.78-2.147 2.7l-.119 3.785-1.131-4.673c-.622-2.57-1.541-5.045-2.041-5.5-.537-.488-.583-.261-.111.553.55.949.366 1.222-.59.875-.764-.278-1.285-.986-1.157-1.575.127-.588-1.175-2.071-2.894-3.295l-3.124-2.225.707 3.92M120 149.059c0 .582.45.781 1 .441s1-.816 1-1.059-.45-.441-1-.441-1 .477-1 1.059m4 6.441c0 .825.436 1.5.969 1.5.532 0 .709-.675.393-1.5-.317-.825-.753-1.5-.969-1.5-.216 0-.393.675-.393 1.5m9.261 1.674c.081 1.279.99 3.676 2.021 5.326 1.684 2.697 1.801 2.748 1.163.5-.39-1.375-1.119-2.656-1.619-2.847-.51-.195-.447-.905.145-1.618.757-.912.644-1.61-.402-2.478-1.207-1.002-1.431-.811-1.308 1.117m3.833 1.326c-.035.55.317 1.6.782 2.334.677 1.067.971 1.007 1.473-.302.346-.9.222-1.385-.275-1.078-.497.307-1.131-.007-1.41-.698-.278-.691-.535-.806-.57-.256m5.985 3.083c.048 1.165.285 1.402.604.605.289-.722.253-1.585-.079-1.917-.332-.332-.568.258-.525 1.312m-19.575 3.424c.343.554 2.057 1.716 3.809 2.582l3.187 1.574-3-2.545c-3.06-2.597-5.117-3.426-3.996-1.611m26.099 1.147c.847 1.356 1.423 3.327 1.622 5.552.24 2.677 1.4.176 1.34-2.887-.047-2.389-.578-3.391-1.933-3.652-1.358-.261-1.639.009-1.029.987m10.137 8.426c-.8 4.183.665 6.118 5.501 7.263 2.342.555 5.384 1.272 6.759 1.594 1.375.322 1.963.326 1.306.01-.656-.317-1.705-2.126-2.33-4.021-.626-1.894-1.552-3.188-2.059-2.875-.552.341-.505 1.35.115 2.51 1.435 2.68-.408 2.448-2.466-.311-1.508-2.021-1.622-2.047-1.12-.25.518 1.853.459 1.872-.792.266-.744-.954-1.669-1.418-2.056-1.031s-.445.03-.129-.794c.316-.824-.044-2.345-.8-3.379-1.296-1.772-1.407-1.714-1.929 1.018M114 178c-.901.582-1.025.975-.309.985.655.008 1.469-.435 1.809-.985.767-1.242.421-1.242-1.5 0m40.5 0c.34.55.816 1 1.059 1s.441-.45.441-1-.477-1-1.059-1-.781.45-.441 1m-3.982 3.98c-1.756 1.941-1.656 2.042 4.989 5.023 3.729 1.673 6.936 2.887 7.126 2.698.189-.19-.991-2.45-2.622-5.023-3.319-5.233-6.405-6.11-9.493-2.698m-5.344 2.334c-2.337 2.488-2.915 4.262-1.004 3.081.794-.491.958-.171.511.993-.414 1.079-.266 1.474.399 1.063.581-.359.79-1.348.464-2.197s.163-2.378 1.087-3.399c2.441-2.697 1.116-2.279-1.457.459M206 196c.825.533 1.95.969 2.5.969s.325-.436-.5-.969c-.825-.533-1.95-.969-2.5-.969s-.325.436.5.969m5 2c.825.533 2.175.945 3 .914.989-.036.819-.347-.5-.914-2.749-1.181-4.328-1.181-2.5 0m6.768 3.168c.582.582 1.647.86 2.369.62.749-.25.295-.703-1.057-1.057-1.663-.435-2.054-.305-1.312.437m11.673.364c1.068.807 2.391 1.468 2.941 1.468.55 0 .127-.661-.941-1.468-1.067-.808-2.391-1.468-2.941-1.468-.55 0-.126.66.941 1.468m-14.172 30.161c.973.254 2.323.237 3-.037.677-.274-.119-.481-1.769-.461-1.65.02-2.204.244-1.231.498" fill="#1976D2" fill-rule="evenodd"/></svg>